<?xml version="1.0" encoding="UTF-8"?>
<svg id="Layer_1" data-name="Layer 1" xmlns="http://www.w3.org/2000/svg" viewBox="0 0 910.49 301.3">
  <defs>
    <style>
      .cls-1 {
        fill: #2f65ae;
      }

      .cls-2 {
        fill: #f06722;
      }
    </style>
  </defs>
  <g>
    <g>
      <path class="cls-2" d="M48.1,292.33c-13.6,8.66-33.89,11.45-48.1,6.59l7.36-28.59c2.88,1.38,5.86,2.33,8.79,2.33,6,0,12.3-1.75,16.55-3.84,2.8,7.03,7.8,16.99,15.39,23.52Z"/>
      <path class="cls-2" d="M141.41,161.89c-2.35,23.76-8.16,65.72-14.48,83.59-13.99,39.62-32.26,47.92-45.09,47.92-5.25,0-11.36-1.38-17.73-5.68-1.68-1.14-3.35-2.45-5.03-4-5.47-5.04-11.02-12.49-16.21-23.3-.93-1.95-1.87-4.01-2.77-6.18-1.15-2.73-2.27-5.65-3.38-8.76-6.72-19.04-11.36-42.56-13.55-68.13-.38-4.3-.68-8.69-.92-13.12h.09c-.1-2.19-.21-4.4-.3-6.62,0-.22-.01-.45-.01-.65-.04-.84-.08-1.67-.09-2.53-.03-.84-.06-1.66-.08-2.52-.04-.95-.05-1.91-.09-2.85-.03-.98-.04-1.92-.05-2.9-.04-1.38-.06-2.73-.08-4.12-.03-.85-.03-1.73-.03-2.59-.01-1.66-.03-3.3-.03-4.97,0-32.9,2.64-63.97,7.44-87.5C33.08,27.06,40.61.6,59.12.6s26.06,26.46,30.11,46.36c4.79,23.54,7.41,54.61,7.41,87.5v2.58c0,.86-.01,1.71-.01,2.56-.03.84-.03,1.71-.04,2.55,0,.88-.01,1.73-.04,2.56-.04,1.69-.06,3.4-.1,5.07-.04,1.69-.09,3.37-.15,5.01-.09,2.23-.16,4.44-.27,6.62-.08,1.66-.16,3.33-.25,4.96v.03c-.03.67-.08,1.3-.11,1.95-.05.82-.09,1.59-.16,2.38-.06,1.3-.18,2.59-.27,3.86-.01.08-.01.14-.01.22-.08.85-.15,1.7-.21,2.53-.08.82-.15,1.62-.23,2.41-.06.78-.14,1.55-.23,2.34v.08c-.13,1.39-.27,2.76-.43,4.14-.2,1.74-.4,3.47-.62,5.19-.2,1.53-.39,3.08-.61,4.6-.09.77-.21,1.53-.33,2.28-.11.75-.21,1.5-.34,2.26-.11.77-.24,1.52-.34,2.26-.25,1.48-.49,2.97-.76,4.44-.13.74-.25,1.45-.39,2.19-.19,1.04-.38,2.1-.58,3.12-.2.99-.39,1.96-.59,2.91-.25,1.24-.5,2.45-.78,3.65-.18.86-.37,1.74-.57,2.59-.16.72-.33,1.43-.49,2.14-.23.98-.48,1.95-.72,2.91-.14.57-.3,1.14-.44,1.73-.42,1.6-.85,3.22-1.3,4.8-.18.67-.38,1.35-.59,2.02-.4,1.39-.81,2.77-1.25,4.12-.43,1.35-.86,2.67-1.31,3.98-9.61-7.66-17.29-40.18-17.29-40.18.11-.54.2-1.07.3-1.62.19-1.03.37-2.06.53-3.13.06-.47.16-.95.23-1.45.16-.97.33-1.96.47-2.98.15-.99.29-2.01.44-3.04.14-1.14.3-2.27.44-3.44.06-.43.11-.88.16-1.31.11-.84.21-1.69.3-2.55.09-.86.19-1.73.28-2.6.05-.45.1-.95.16-1.42.09-.86.15-1.75.25-2.65.06-.7.11-1.41.18-2.14.06-.64.1-1.27.16-1.92.06-.78.13-1.56.18-2.35.05-.67.09-1.37.14-2.06.06-.67.09-1.39.13-2.09.58-9.8.92-20.54.92-32.12,0-48.61-5.95-82.16-10.99-97.38-5.04,15.22-10.97,48.77-10.97,97.38,0,1.34,0,2.65.03,3.96v1.69c.01.56.01,1.11.01,1.67.04,2.42.08,4.79.15,7.1.06,3.5.21,6.94.35,10.25.03.79.05,1.57.11,2.35.04.89.09,1.77.13,2.66.13,2.24.27,4.44.4,6.59h-.09c.16,2.26.34,4.46.57,6.62,1.35,14.64,3.52,27.52,6.17,38.56.95,4.09,1.99,7.94,3.09,11.53,2.5,8.27,5.27,15.17,8.03,20.68,2.78,5.5,5.57,9.64,8.18,12.31,1.82,1.85,3.55,3.02,5.11,3.47.51.15.97.21,1.43.21,9.57,0,27.3-31.28,32.25-89.3.11-1.14,1.79-17.99,2.13-19.02l25.19,6.1Z"/>
    </g>
    <path class="cls-2" d="M271.72,270.33l-7.36,28.59c-.42-.13-.83-.28-1.24-.43-4.05-1.56-7.89-3.7-11.44-6.35-10.25-6.13-16.86-17.19-20.39-24.73-.05-.14-.11-.26-.18-.38-.19-.42-.37-.82-.54-1.2,0-.01-.03-.04-.04-.06-.62-1.49-1.22-3.04-1.82-4.62-.18-.5-.38-1.02-.56-1.53-.06-.19-.09-.31-.09-.31-1.07-2.95-2.07-6.09-3.06-9.47-1.1-3.82-2.1-7.79-3.04-11.92-2.46-11.04-4.27-23.16-5.38-35.97-.01-.11-.04-.24-.04-.35-.2-2.33-.39-4.65-.54-7.02-.05-.71-.09-1.43-.14-2.14-.05-1.06-.11-2.13-.18-3.2,0-.07,0-.19-.03-.28-.04-.89-.06-1.78-.1-2.67-.04-.7-.06-1.39-.09-2.1-.06-1.69-.11-3.4-.15-5.13-.01-.64-.04-1.28-.05-1.91,0-.85-.03-1.71-.03-2.59-.01-.06,0-.11-.01-.17,0-1.02-.01-2.01-.01-3.02-.06-1.52-.16-3.94-.23-5.45l-.05-.54c-.08-.81-.16-1.62-.25-2.42-.05-.54-.1-1.09-.18-1.64-.01-.06-.01-.14-.04-.2-.09-.75-.18-1.52-.29-2.24-.09-.74-.19-1.45-.3-2.14-.09-.63-.18-1.24-.29-1.81-.01-.13-.01-.22-.04-.32-.01-.04-.03-.1-.03-.14-.11-.67-.23-1.34-.35-1.99-.13-.7-.25-1.38-.39-2.06-.09-.46-.18-.92-.29-1.35-.01-.14-.05-.29-.09-.42-.04-.24-.09-.46-.14-.7-.11-.52-.24-1.02-.37-1.5-.14-.65-.3-1.3-.47-1.94-2.13-8.26-4.54-13.18-6.37-15.93-1.23-1.85-3.89-2.01-5.34-.33-2.13,2.48-5.07,7.03-8.1,14.88-5.25,13.52-8.75,31.46-9.84,50.49-1.1,19.04.33,37.32,3.99,51.47,2.47,9.57,5.31,14.66,7.18,17.07.87,1.12,2.53,1.24,3.54.24.32-.32.67-.69,1.05-1.13,2.12-2.49,5.03-7.03,8.04-14.82.77-1.96,1.5-4.05,2.2-6.21.47-1.45.91-2.94,1.33-4.47.16-.54.3-1.1.45-1.63.06-.31.16-.57.23-.88.04-.15.09-.33.13-.5.06-.21.11-.43.19-.67.04-.18.09-.38.14-.56,1.86,13.19,5.27,29.86,11.47,43.22-.16.25-.33.5-.49.74-.32.49-.62.93-.95,1.38-.15.24-.32.49-.5.71-.15.24-.34.47-.51.72-.32.45-.66.89-1,1.31-.42.56-.85,1.09-1.29,1.59-.19.2-.38.42-.56.63-.42.49-.82.93-1.24,1.35-.34.36-.68.7-1.01,1.04-.34.33-.68.67-1.02.99h-.03c-.16.15-.33.29-.48.46-.19.14-.34.28-.5.42-.2.17-.42.33-.62.52-.39.33-.8.65-1.19.93-.2.15-.42.32-.61.46-.2.14-.4.28-.61.4-.19.14-.39.26-.59.4-.24.15-.47.31-.69.45-.16.1-.32.2-.47.29-.09.06-.19.1-.28.14-.23.14-.44.28-.68.39-.25.14-.52.28-.77.4-.2.1-.4.2-.58.28-.25.11-.48.24-.72.33-.59.26-1.17.47-1.73.7-.23.08-.44.15-.67.22-.25.07-.48.15-.73.24-.27.07-.56.15-.83.21-.23.07-.48.13-.72.18-.38.08-.77.17-1.14.22-.28.06-.57.1-.85.14h-.01c-.29.04-.58.08-.87.1-.01,0-.03.03-.05,0-.18.04-.38.04-.56.06-.2.03-.38.03-.58.04-.4.03-.81.03-1.2.03h-.67c-.27-.03-.52-.04-.77-.07-8.02-.56-22.79-5.97-31.64-36.09-5.27-17.94-7.4-41.13-6.02-65.29,1.39-24.16,6.16-46.87,13.43-63.93,12.24-28.65,27.5-31.99,35.52-31.43.14.03.27.03.43.04.15.03.29.04.43.04.32.04.62.08.95.13.3.06.63.11.97.18.15.03.32.07.51.1.14.03.32.07.48.11.21.04.45.13.67.18.3.08.63.18.95.28.19.06.37.13.54.18.18.06.37.11.56.2.1.03.19.06.28.1.1.04.2.08.29.13.19.06.38.14.56.21.2.11.39.18.59.26.21.1.43.19.64.32.04.01.08.04.11.04.01.01.04.01.05.04.21.1.45.21.67.33.63.33,1.28.7,1.91,1.11.33.2.63.42.96.65.25.15.48.33.73.52.05.04.11.1.16.14.04,0,.05.04.09.06.08.04.13.1.2.14.29.22.57.46.86.7,5.15,4.3,10.47,11.42,14.79,23.12.8,2.13,1.55,4.39,2.26,6.81.01.07.05.14.06.21.38,1.32.74,2.66,1.1,4.02.34,1.31.66,2.66.96,4.01.16.72.33,1.43.47,2.17.2.91.38,1.82.56,2.77.11.6.21,1.18.33,1.77.14.86.29,1.71.43,2.56.11.65.2,1.32.3,1.99.03.18.06.36.08.56.09.52.16,1.06.24,1.59.21,1.62.43,3.25.61,4.89.01.1.01.18.01.28.11.93.23,1.88.32,2.81.05.56.1,1.14.16,1.7.13,1.64.25,3.29.35,4.96v.07c.08,1.03.13,2.03.18,3.08,0,.17.03.33.03.49.04.74.06,1.48.09,2.21.01.11.01.25.01.38,0,.11.03.28.03.39,0,.1,0,.2.01.31.08,2.1.11,4.22.13,6.35v.54c0,.95,0,1.88-.01,2.81v.15c0,.56,0,1.11-.03,1.67,0,.56-.01,1.14-.01,1.69.05,1.52.14,2.98.25,4.46.05.71.09,1.43.14,2.14.08.79.13,1.62.2,2.41.08.79.14,1.56.21,2.35.11,1.25.24,2.49.37,3.7.06.63.13,1.24.21,1.87.1,1,.21,2.01.34,2.98.06.53.13,1.07.19,1.59.11.75.2,1.49.32,2.21.01.08.01.17.04.25.14,1.03.28,2.03.43,3.04.14.84.27,1.67.42,2.48.13.85.27,1.71.4,2.55.11.63.24,1.25.35,1.87.06.38.13.74.19,1.09.03.13.05.26.08.38.2,1.06.42,2.08.63,3.08.01.13.04.24.08.36.09.46.18.92.28,1.36.11.54.24,1.07.34,1.62.19.75.35,1.5.53,2.23.01.07.04.15.05.21.15.6.27,1.18.43,1.75.04.15.07.29.11.45l.32,1.2c5.27,16.7,12.27,25.94,17.25,30.76.51.5.98.93,1.44,1.34.09-.1.18-.19.27-.29,1.17.7,2.37,1.35,3.59,1.94Z"/>
    <g>
      <path class="cls-2" d="M246.44,123.62c-.34-1.06-.72-2.12-1.11-3.16-4.68-12.67-11.04-22.42-18.86-28.97l-.33-.28c-.3-.25-.62-.5-.92-.74l-.76-.59-.13-.07c-.29-.21-.58-.4-.87-.6-.2-.15-.45-.33-.74-.53l-.15-.33-1.69-.88-2.49-1.69-1.6-.82c-.13-.82-.25-1.63-.39-2.42-.11-.77-.24-1.5-.38-2.24-.08-.46-.15-.92-.24-1.38-.09-.52-.19-1.04-.28-1.56-.09-.43-.16-.86-.25-1.3-.11-.56-.21-1.1-.33-1.64-.2-1.02-.42-2.01-.62-2.97-.03-.1-.04-.2-.06-.28-.23-1.03-.45-2.06-.69-3.05-.09-.38-.18-.77-.28-1.14-.09-.38-.18-.77-.28-1.13-.19-.75-.38-1.48-.57-2.2-.13-.49-.25-.97-.39-1.45-.25-.93-.5-1.85-.78-2.76-.05-.17-.1-.32-.14-.49-.19-.63-.38-1.25-.58-1.87-.42-1.38-.86-2.7-1.31-3.97-.14-.43-.29-.85-.44-1.25-.15-.4-.29-.78-.43-1.16-.14-.39-.28-.78-.43-1.14-.15-.38-.29-.74-.44-1.1-.28-.72-.58-1.43-.87-2.12,0-.01-.01-.01-.01-.01-.29-.68-.58-1.34-.87-1.98-.08-.15-.15-.32-.23-.47-.08-.17-.14-.32-.23-.47-.29-.63-.59-1.24-.9-1.81-.14-.31-.29-.58-.44-.86-.32-.59-.62-1.14-.93-1.69-.14-.25-.28-.49-.43-.72-.24-.43-.49-.84-.74-1.21-.16-.26-.32-.5-.48-.74-.13-.18-.24-.36-.37-.53-.13-.18-.24-.33-.37-.5-.1-.17-.23-.32-.35-.49-.11-.15-.23-.31-.35-.46-.15-.2-.32-.4-.47-.59-.15-.18-.3-.36-.44-.53l-.14-.15c-.13-.14-.24-.26-.37-.4-.13-.14-.25-.26-.38-.39-.1-.11-.21-.22-.3-.31-.19-.18-.38-.35-.56-.52-.15-.13-.29-.25-.43-.36-.14-.13-.29-.22-.43-.33-.53-.39-1.05-.71-1.55-.96-.11-.06-.24-.11-.37-.17-.58-.24-1.14-.38-1.68-.42-5.61-.39-14.62,9.79-22.8,29.89-.98,2.42-1.76,4.02-2.92,6.88-7.42-2.41-12.16-4.24-23.67-8.62C161.58,5.81,181.66-.82,194.45.07c12.82.89,30.56,10.47,42.27,50.97,5.9,20.4,9.2,45.51,9.71,72.57Z"/>
      <path class="cls-2" d="M231.11,267.02s-.04-.08-.07-.12c-.13-.26-.23-.52-.34-.75-.04-.1-.09-.2-.13-.32.18.38.36.77.54,1.19Z"/>
    </g>
    <path class="cls-2" d="M143.98,93.93s8.13-11.7,18.1-4.38c9.11,6.69,9.41,22-31.77,45.44-16.95-44.97-4.14-53.14,2.95-52.96,7.95.2,10.71,11.9,10.71,11.9Z"/>
  </g>
  <g>
    <path class="cls-1" d="M416.6,209.37c-1.36-3.62-3.73-6.71-7.14-9.36-3.55-2.76-8.46-4.95-14.63-6.6-6.35-1.65-14.56-2.51-24.35-2.51s-17.54.83-23.85,2.4c-6.13,1.54-11.05,3.66-14.63,6.31-3.44,2.58-5.74,5.45-7.03,8.86-.97,2.62-1.47,5.49-1.47,8.5l22.6,2.26c.22-.61.47-1.22.79-1.83.97-2.01,2.65-3.73,4.91-5.13,2.01-1.26,4.59-2.22,7.82-2.94,3.08-.72,6.85-1.08,11.48-1.08,3.19,0,6.2.22,9,.65,2.87.43,5.49,1.15,7.71,2.08,2.47,1.04,4.45,2.4,5.95,4.02,1.76,1.9,2.65,4.27,2.65,6.89,0,1.43-.57,4.99-5.99,6.38-2.37.61-5.34,1-9.15,1.22-3.55.18-7.6.32-12.09.43-4.34.11-8.79.39-13.27.86-4.41.47-8.82,1.22-13.09,2.19-4.05.93-7.71,2.37-10.87,4.27-3.01,1.79-5.38,4.09-7.17,6.96-1.69,2.73-2.58,6.35-2.58,10.69,0,3.41.79,6.42,2.33,9.25,1.54,2.83,3.91,5.31,6.96,7.42,3.19,2.19,7.25,3.91,12.09,5.16,4.95,1.29,10.76,1.94,17.25,1.94,7.46,0,13.95-1.11,19.22-3.23,5.13-2.08,9.15-4.99,11.91-8.64l4.77-6.2,3.84,15.14h18.22v-53.84c0-4.52-.75-8.72-2.19-12.52ZM396.41,246.21c-.14,2.19-1.11,4.34-2.91,6.38-1.54,1.79-3.66,3.37-6.31,4.66-2.47,1.22-5.49,2.19-8.93,2.94-3.44.75-7.35,1.11-11.73,1.11-3.91,0-7.03-.14-9.58-.47-2.65-.32-4.73-.79-6.31-1.36-1.97-.75-3.41-1.65-4.38-2.8-1.11-1.33-1.72-2.83-1.72-4.45,0-3.08,1.61-5.63,4.41-6.99,1.94-.93,4.3-1.54,7.25-1.9,2.55-.29,5.52-.5,8.82-.61,3.05-.07,6.17-.32,9.33-.72,3.08-.36,7.03-.86,10.01-1.58,4.02-.97,4.84-.97,12.05-5.63v11.41Z"/>
    <path class="cls-1" d="M511.22,248.75c-.29.93-.65,1.87-1.15,2.76-1.11,2.12-2.76,4.05-4.88,5.74-2.04,1.65-4.59,2.98-7.6,4.02-2.98,1-6.38,1.51-10.22,1.51s-7.32-.29-10.62-.86c-3.69-.61-6.96-1.97-9.72-3.95-2.8-2.04-5.06-4.88-6.71-8.36-1.61-3.48-2.4-7.85-2.4-13.34s.79-9.58,2.4-13.06c1.65-3.51,3.91-6.35,6.78-8.43,2.8-2.04,6.06-3.41,9.72-4.09,3.37-.65,6.89-.97,10.54-.97,7.71,0,13.38,1.58,17.36,4.84,3.05,2.47,5.06,5.6,5.95,9.22l25-1.51c-.57-3.51-1.72-6.78-3.37-9.76-2.26-4.02-5.52-7.57-9.72-10.47-4.3-3.01-9.68-5.42-15.96-7.07-6.42-1.72-13.88-2.62-22.2-2.62s-16,1-22.52,2.94c-6.42,1.9-11.94,4.7-16.43,8.39-4.41,3.62-7.82,8.14-10.15,13.52-2.37,5.49-3.59,11.87-3.59,19.05s1.22,13.67,3.59,19.08c2.33,5.34,5.74,9.86,10.15,13.49,4.48,3.66,10.01,6.49,16.43,8.36,6.53,1.97,14.13,2.94,22.52,2.94,7.35,0,14.31-.86,20.73-2.58,6.31-1.69,11.87-4.09,16.5-7.14,4.52-2.94,8.14-6.56,10.76-10.69,1.9-2.98,3.08-6.13,3.59-9.5l-24.78-1.47Z"/>
    <path class="cls-1" d="M605.12,259.94c-2.15.18-4.16.25-5.99.25-2.98,0-5.45-.22-7.53-.72-4.02-.9-6.85-2.65-8.46-5.24-1.43-2.33-2.19-5.09-2.19-8.25v-36.66h40.17v-17.36h-40.17v-26.4h-26.15v26.4h-13.95v17.36h13.95v36.66c0,15.64,5.2,25.32,15.92,29.63,5.09,2.01,11.58,3.05,19.3,3.05,8.86,0,19.51-1.36,31.71-4.05v-17.22c-6.6,1.33-12.16,2.19-16.61,2.55Z"/>
    <path class="cls-1" d="M788.76,217.12c-2.22-5.24-5.6-9.86-10.08-13.7-4.52-3.91-10.29-6.99-17.22-9.15-7.03-2.22-15.42-3.37-24.96-3.37s-17.93,1.15-24.96,3.37c-6.89,2.19-12.7,5.24-17.22,9.15-4.45,3.84-7.85,8.46-10.04,13.7-2.26,5.31-3.37,11.26-3.37,17.68s1.11,12.34,3.37,17.65c2.19,5.24,5.56,9.83,10.04,13.63,4.52,3.84,10.33,6.96,17.25,9.18,7.03,2.26,15.42,3.41,24.93,3.41s17.93-1.15,24.96-3.41c6.92-2.22,12.73-5.34,17.25-9.18,4.45-3.8,7.82-8.39,10.04-13.63,2.22-5.31,3.37-11.26,3.37-17.65s-1.15-12.37-3.37-17.68ZM757.73,255.07c-5.24,4.16-12.37,6.24-21.23,6.24s-16-2.08-21.2-6.24c-5.45-4.38-8.25-11.19-8.25-20.26s2.76-15.78,8.25-20.19c5.2-4.2,12.34-6.35,21.2-6.35s16.03,2.15,21.23,6.35c5.45,4.41,8.21,11.19,8.21,20.19s-2.76,15.89-8.21,20.26Z"/>
    <path class="cls-1" d="M901.13,202.99c-6.2-6.06-16.46-9.15-30.41-9.15-8.93,0-16.28,1.15-21.81,3.41-5.34,2.15-9.54,5.2-12.45,9.04l-4.27,5.67-5.24-15.17h-20.66v81.88h26.15v-52.47c.14-2.01.75-4.02,1.79-5.92,1.11-1.97,2.8-3.69,5.02-5.06,2.01-1.26,4.52-2.22,7.64-2.94,2.94-.72,6.53-1.08,10.62-1.08,4.73,0,8.82.39,12.05,1.11,3.55.82,6.46,2.15,8.64,3.91,2.33,1.87,3.98,4.16,4.88,6.85.82,2.4,1.22,5.16,1.22,8.21v47.38h26.18v-47.38c0-12.77-3.16-22.27-9.36-28.3Z"/>
    <path class="cls-1" d="M322.2,20.82v111.22h26.18V20.82h-26.18Z"/>
    <path class="cls-1" d="M470.4,70.5c-2.22-5.24-5.6-9.86-10.04-13.7-4.55-3.91-10.33-6.99-17.25-9.18-7.03-2.22-15.42-3.34-24.96-3.34s-17.93,1.11-24.96,3.34c-6.89,2.19-12.7,5.27-17.22,9.18-4.48,3.84-7.85,8.46-10.04,13.7-2.22,5.31-3.37,11.26-3.37,17.65s1.11,12.37,3.37,17.68c2.19,5.24,5.56,9.83,10.04,13.63,4.52,3.87,10.33,6.92,17.25,9.18,6.99,2.26,15.42,3.41,24.93,3.41s17.93-1.15,24.96-3.41c6.92-2.26,12.7-5.31,17.25-9.18,4.45-3.8,7.82-8.39,10.04-13.63,2.22-5.31,3.37-11.26,3.37-17.68s-1.15-12.34-3.37-17.65ZM439.34,108.44c-5.2,4.12-12.34,6.24-21.2,6.24s-16-2.12-21.2-6.24c-5.49-4.38-8.25-11.19-8.25-20.3s2.76-15.75,8.25-20.16c5.2-4.2,12.34-6.35,21.2-6.35s16.03,2.15,21.23,6.35c5.45,4.41,8.25,11.19,8.25,20.16s-2.8,15.92-8.29,20.3Z"/>
    <path class="cls-1" d="M564.48,50.16l-30.49,66.96-30.27-66.96h-29.05l42.29,81.88h34.4l42.29-81.88h-29.16Z"/>
    <path class="cls-1" d="M699.63,87.86c0-14.38-4.27-25-13.02-32.35-8.82-7.46-22.09-11.23-39.38-11.23-8.39,0-15.96,1-22.52,2.94-6.42,1.9-11.94,4.7-16.43,8.39-4.38,3.59-7.82,8.14-10.15,13.52-2.33,5.45-3.55,11.87-3.55,19.01s1.22,13.7,3.55,19.12c2.33,5.31,5.77,9.86,10.15,13.45,4.48,3.69,10.01,6.49,16.43,8.39,6.56,1.94,14.17,2.94,22.52,2.94,14.45,0,26.36-2.55,35.44-7.6,7.14-3.95,11.98-9,14.74-15.32h-26.79c-.22.18-.47.39-.75.61-1.18.9-2.8,1.69-4.99,2.4-1.94.65-4.3,1.22-7.17,1.76-2.94.54-6.35.79-10.47.79-8.03,0-14.13-1.22-18.61-3.69-5.02-2.83-7.75-7.32-7.89-13.06l-.07-3.87h78.98v-6.2ZM673.48,81.69h-52.76v-5.34c.11-2.98,1.4-7.24,7.03-10.83,4.09-2.62,10.47-3.87,19.48-3.87s15.14,1.26,19.26,3.84c5.77,3.62,6.99,7.89,6.99,10.83v5.38Z"/>
    <path class="cls-1" d="M764.22,53.24v79.23h26.15V53.24h-26.15ZM788.11,14.87c-2.73-2.73-6.24-4.02-10.83-4.02s-8.21,1.29-10.87,3.98c-2.65,2.73-3.95,6.28-3.95,10.87s1.29,8.21,3.95,10.87c2.65,2.65,6.2,3.95,10.87,3.95s8.14-1.29,10.83-3.95c2.69-2.65,4.02-6.24,4.02-10.87s-1.33-8.11-4.02-10.83Z"/>
    <path class="cls-1" d="M639.26,199.44v79.23h26.18v-79.23h-26.18ZM663.19,161.06c-2.73-2.73-6.28-4.02-10.83-4.02s-8.21,1.29-10.87,3.98c-2.65,2.73-3.98,6.28-3.98,10.83s1.29,8.25,3.95,10.9c2.65,2.65,6.24,3.95,10.9,3.95s8.11-1.29,10.83-3.95c2.69-2.65,4.02-6.24,4.02-10.9s-1.33-8.11-4.02-10.8Z"/>
    <path class="cls-1" d="M901.16,56.33c-6.24-6.03-16.46-9.11-30.45-9.11-8.93,0-16.28,1.15-21.81,3.37-5.34,2.19-9.54,5.24-12.41,9.07l-4.3,5.63-5.24-15.14h-20.66v81.88h26.15v-52.26l.04-.22c.11-2.04.72-4.02,1.76-5.92,1.11-2.01,2.8-3.69,5.02-5.06,2.01-1.26,4.52-2.22,7.64-2.98,2.98-.68,6.53-1.04,10.62-1.04,4.77,0,8.82.36,12.09,1.11,3.51.82,6.42,2.12,8.64,3.91,2.3,1.86,3.95,4.16,4.88,6.85.79,2.4,1.22,5.16,1.22,8.18v47.42h26.15v-47.42c0-12.73-3.16-22.27-9.33-28.3Z"/>
  </g>
</svg>