<?xml version="1.0" encoding="UTF-8"?>
<svg id="Layer_2" data-name="Layer 2" xmlns="http://www.w3.org/2000/svg" viewBox="0 0 72.2 23.23">
  <defs>
    <style>
      .cls-1 {
        fill: #f06722;
        opacity: .85;
      }

      .cls-2 {
        fill: #0d3056;
      }
    </style>
  </defs>
  <g id="Layer_1-2" data-name="Layer 1">
    <g>
      <g>
        <g>
          <path class="cls-1" d="M8.65,11.93l1.86.22s-1.03,10.98-4.54,11.08c-2.1.06-4.84-2.6-4.68-13.66C1.36,4.71,2.18.89,4.35.75c3.59-.23,3.72,13.29,1.32,18.66,0,0-.84-1.43-1.01-3.47,1.23-4.83.25-12.89-.31-12.84-1.2.26-2.06,17.08,1.55,18.01,1.55.13,2.74-9.18,2.74-9.18Z"/>
          <path class="cls-1" d="M18.39,9.58c-.42-1.2-1.1-2.14-2.24-2.51-.13-1.58-.93-4.28-1.76-4.3-1.06-.03-2.07,2.78-2.07,2.78l-1.83-.66S11.66.57,14.39.75c3.43.22,3.91,6.67,4,8.83Z"/>
          <path class="cls-1" d="M1.9,20.96c-.6.32-1.39.05-1.39.05l-.51,1.93s1.63.57,3.02-.26c-.54-.34-1.12-1.71-1.12-1.71Z"/>
          <path class="cls-1" d="M20.28,20.96l-.52,1.95c-4.68-1.25-2.98-13.03-4.64-12.73s-1.78,10.86-.6,10.99c.54.07,1.13-2.44,1.13-2.44,0,0,.36,1.99,1.03,2.91-.7,1.55-2.07,1.55-2.07,1.55-2.1.12-3.1-3.92-2.96-7.9s1.31-7.57,3.59-7.48c4.27.17,1.85,12.3,5.04,13.15Z"/>
        </g>
        <path class="cls-1" d="M10.52,8s.02-.83-.7-.87c-.66-.04-1.2.72.17,3.28.74-.81,2.92-2.21,1.86-2.86-.61-.37-1.33.45-1.33.45Z"/>
      </g>
      <g>
        <path class="cls-2" d="M32.16,15.56c-.11-.29-.3-.54-.58-.76-.29-.22-.69-.4-1.19-.53-.51-.13-1.18-.2-1.97-.2s-1.42.07-1.93.19c-.5.13-.9.3-1.19.51-.28.21-.47.44-.57.72-.08.21-.12.44-.12.69l1.83.18s.04-.1.06-.15c.08-.16.22-.3.4-.42.16-.1.37-.18.63-.24.25-.06.56-.09.93-.09.26,0,.5.02.73.05.23.03.44.09.63.17.2.08.36.19.48.33.14.15.22.35.22.56,0,.12-.05.4-.49.52-.19.05-.43.08-.74.1-.29.01-.62.03-.98.03-.35,0-.71.03-1.08.07-.36.04-.72.1-1.06.18-.33.08-.63.19-.88.35-.24.15-.44.33-.58.56-.14.22-.21.51-.21.87,0,.28.06.52.19.75.13.23.32.43.56.6.26.18.59.32.98.42.4.1.87.16,1.4.16.6,0,1.13-.09,1.56-.26.42-.17.74-.4.97-.7l.39-.5.31,1.23h1.48v-4.36c0-.37-.06-.71-.18-1.01ZM30.53,18.54c-.01.18-.09.35-.24.52-.13.15-.3.27-.51.38-.2.1-.44.18-.72.24-.28.06-.6.09-.95.09-.32,0-.57-.01-.78-.04-.22-.03-.38-.06-.51-.11-.16-.06-.28-.13-.35-.23-.09-.11-.14-.23-.14-.36,0-.25.13-.46.36-.57.16-.08.35-.13.59-.15.21-.02.45-.04.72-.05.25,0,.5-.03.76-.06.25-.03.57-.07.81-.13.33-.08.39-.08.98-.46v.92Z"/>
        <path class="cls-2" d="M39.83,18.75c-.02.08-.05.15-.09.22-.09.17-.22.33-.4.47-.17.13-.37.24-.62.33-.24.08-.52.12-.83.12s-.59-.02-.86-.07c-.3-.05-.56-.16-.79-.32-.23-.17-.41-.4-.54-.68-.13-.28-.19-.64-.19-1.08s.06-.78.19-1.06c.13-.28.32-.51.55-.68.23-.17.49-.28.79-.33.27-.05.56-.08.85-.08.63,0,1.08.13,1.41.39.25.2.41.45.48.75l2.03-.12c-.05-.28-.14-.55-.27-.79-.18-.33-.45-.61-.79-.85-.35-.24-.79-.44-1.29-.57-.52-.14-1.13-.21-1.8-.21s-1.3.08-1.83.24c-.52.15-.97.38-1.33.68-.36.29-.63.66-.82,1.1-.19.44-.29.96-.29,1.54s.1,1.11.29,1.55c.19.43.47.8.82,1.09.36.3.81.53,1.33.68.53.16,1.15.24,1.83.24.6,0,1.16-.07,1.68-.21.51-.14.96-.33,1.34-.58.37-.24.66-.53.87-.87.15-.24.25-.5.29-.77l-2.01-.12Z"/>
        <path class="cls-2" d="M47.45,19.66c-.17.01-.34.02-.49.02-.24,0-.44-.02-.61-.06-.33-.07-.56-.22-.69-.42-.12-.19-.18-.41-.18-.67v-2.97h3.26v-1.41h-3.26v-2.14h-2.12v2.14h-1.13v1.41h1.13v2.97c0,1.27.42,2.05,1.29,2.4.41.16.94.25,1.56.25.72,0,1.58-.11,2.57-.33v-1.4c-.53.11-.99.18-1.35.21Z"/>
        <path class="cls-2" d="M62.33,16.18c-.18-.42-.45-.8-.82-1.11-.37-.32-.83-.57-1.4-.74-.57-.18-1.25-.27-2.02-.27s-1.45.09-2.02.27c-.56.18-1.03.42-1.4.74-.36.31-.64.69-.81,1.11-.18.43-.27.91-.27,1.43s.09,1,.27,1.43c.18.42.45.8.81,1.1.37.31.84.56,1.4.74.57.18,1.25.28,2.02.28s1.45-.09,2.02-.28c.56-.18,1.03-.43,1.4-.74.36-.31.63-.68.81-1.1.18-.43.27-.91.27-1.43s-.09-1-.27-1.43ZM59.82,19.26c-.42.34-1,.51-1.72.51s-1.3-.17-1.72-.51c-.44-.35-.67-.91-.67-1.64s.22-1.28.67-1.64c.42-.34,1-.51,1.72-.51s1.3.17,1.72.51c.44.36.67.91.67,1.64s-.22,1.29-.67,1.64Z"/>
        <path class="cls-2" d="M71.44,15.04c-.5-.49-1.33-.74-2.47-.74-.72,0-1.32.09-1.77.28-.43.17-.77.42-1.01.73l-.35.46-.42-1.23h-1.67v6.64h2.12v-4.25c.01-.16.06-.33.15-.48.09-.16.23-.3.41-.41.16-.1.37-.18.62-.24.24-.06.53-.09.86-.09.38,0,.72.03.98.09.29.07.52.17.7.32.19.15.32.34.4.56.07.19.1.42.1.67v3.84h2.12v-3.84c0-1.04-.26-1.81-.76-2.29Z"/>
        <path class="cls-2" d="M50.21,14.75v6.42h2.12v-6.42h-2.12ZM52.15,11.64c-.22-.22-.51-.33-.88-.33s-.67.1-.88.32c-.22.22-.32.51-.32.88s.1.67.32.88c.22.22.51.32.88.32s.66-.1.88-.32c.22-.22.33-.51.33-.88s-.11-.66-.33-.88Z"/>
      </g>
      <g>
        <path class="cls-2" d="M24.51.81v9.02h2.12V.81h-2.12Z"/>
        <path class="cls-2" d="M36.53,4.84c-.18-.42-.45-.8-.81-1.11-.37-.32-.84-.57-1.4-.74-.57-.18-1.25-.27-2.02-.27s-1.45.09-2.02.27c-.56.18-1.03.43-1.4.74-.36.31-.64.69-.81,1.11-.18.43-.27.91-.27,1.43s.09,1,.27,1.43c.18.42.45.8.81,1.1.37.31.84.56,1.4.74.57.18,1.25.28,2.02.28s1.45-.09,2.02-.28c.56-.18,1.03-.43,1.4-.74.36-.31.63-.68.81-1.1.18-.43.27-.91.27-1.43s-.09-1-.27-1.43ZM34.01,7.91c-.42.33-1,.51-1.72.51s-1.3-.17-1.72-.51c-.44-.35-.67-.91-.67-1.65s.22-1.28.67-1.63c.42-.34,1-.51,1.72-.51s1.3.17,1.72.51c.44.36.67.91.67,1.63s-.23,1.29-.67,1.65Z"/>
        <path class="cls-2" d="M44.15,3.19l-2.47,5.43-2.45-5.43h-2.36l3.43,6.64h2.79l3.43-6.64h-2.36Z"/>
        <path class="cls-2" d="M55.11,6.24c0-1.17-.35-2.03-1.06-2.62-.72-.6-1.79-.91-3.19-.91-.68,0-1.29.08-1.83.24-.52.15-.97.38-1.33.68-.35.29-.63.66-.82,1.1-.19.44-.29.96-.29,1.54s.1,1.11.29,1.55c.19.43.47.8.82,1.09.36.3.81.53,1.33.68.53.16,1.15.24,1.83.24,1.17,0,2.14-.21,2.87-.62.58-.32.97-.73,1.19-1.24h-2.17s-.04.03-.06.05c-.1.07-.23.14-.4.19-.16.05-.35.1-.58.14-.24.04-.51.06-.85.06-.65,0-1.15-.1-1.51-.3-.41-.23-.63-.59-.64-1.06v-.31s6.4,0,6.4,0v-.5ZM52.99,5.74h-4.28v-.43c0-.24.11-.59.57-.88.33-.21.85-.31,1.58-.31s1.23.1,1.56.31c.47.29.57.64.57.88v.44Z"/>
        <path class="cls-2" d="M60.34,3.44v6.42h2.12V3.44h-2.12ZM62.28.33c-.22-.22-.51-.33-.88-.33s-.67.1-.88.32c-.22.22-.32.51-.32.88s.1.67.32.88.5.32.88.32.66-.1.88-.32.33-.51.33-.88-.11-.66-.33-.88Z"/>
        <path class="cls-2" d="M71.44,3.69c-.51-.49-1.33-.74-2.47-.74-.72,0-1.32.09-1.77.27-.43.18-.77.42-1.01.74l-.35.46-.42-1.23h-1.67v6.64h2.12v-4.25c.01-.17.06-.33.15-.48.09-.16.23-.3.41-.41.16-.1.37-.18.62-.24.24-.06.53-.08.86-.08.39,0,.72.03.98.09.28.07.52.17.7.32.19.15.32.34.4.56.06.19.1.42.1.66v3.84h2.12v-3.84c0-1.03-.26-1.81-.76-2.29Z"/>
      </g>
    </g>
  </g>
</svg>